# xmcd
#
# Track frame offsets:
# 150
# 15529
# 33462
# 56870
# 72484
# 84861
# 101180
# 114550
# 130471
# 148106
# 167014
# 183228
# 205541
# 224449
#
# Disc length: 3151 seconds
#
# Revision: 0
# Processed by: cddbd v1.5PL3 Copyright (c) Steve Scherf et al.
# Submitted via: Audion 3.0.2 (http://www.panic.com/audion/)
#
DISCID=cd0c4d0e
DTITLE=Mixed - Ljud CD #8
DYEAR=1900
DGENRE=
TTITLE0=En Gammal Amazon
TTITLE1=En Stor Stark
TTITLE2=Sommarnatt
TTITLE3=Kom Och Ta Mej
TTITLE4=99 Luftballons
TTITLE5=Chrucified
TTITLE6=Dover-Calais
TTITLE7=Folköl and Dunka-Dunka
TTITLE8=Girls Just Wanna Have Fun
TTITLE9=Knivhuggarrock
TTITLE10=Långa Bollar På Bengt
TTITLE11=Midnight Man
TTITLE12=Ooa Hela Natten
TTITLE13=Skateboard
EXTD=
EXTT0=
EXTT1=
EXTT2=
EXTT3=
EXTT4=
EXTT5=
EXTT6=
EXTT7=
EXTT8=
EXTT9=
EXTT10=
EXTT11=
EXTT12=
EXTT13=
PLAYORDER=
